solid OpenSCAD_Model
  facet normal 0 0 -1
    outer loop
      vertex -17 0 0
      vertex -16.6285 3.5345 0
      vertex -16.6285 -3.5345 0
    endloop
  endfacet
  facet normal 0 0 -1
    outer loop
      vertex -16.6285 -3.5345 0
      vertex -16.6285 3.5345 0
      vertex -15.5303 6.91452 0
    endloop
  endfacet
  facet normal 0 0 -1
    outer loop
      vertex -16.6285 -3.5345 0
      vertex -15.5303 6.91452 0
      vertex -13.7533 9.99235 0
    endloop
  endfacet
  facet normal 0 0 -1
    outer loop
      vertex -16.6285 -3.5345 0
      vertex -13.7533 9.99235 0
      vertex -11.3752 12.6335 0
    endloop
  endfacet
  facet normal 0 0 -1
    outer loop
      vertex -16.6285 -3.5345 0
      vertex -11.3752 12.6335 0
      vertex -8.5 14.7224 0
    endloop
  endfacet
  facet normal 0 0 -1
    outer loop
      vertex -16.6285 -3.5345 0
      vertex -8.5 14.7224 0
      vertex -5.25329 16.168 0
    endloop
  endfacet
  facet normal 0 0 -1
    outer loop
      vertex -16.6285 -3.5345 0
      vertex -5.25329 16.168 0
      vertex -1.77698 16.9069 0
    endloop
  endfacet
  facet normal 0 0 -1
    outer loop
      vertex -16.6285 -3.5345 0
      vertex -1.77698 16.9069 0
      vertex 1.77698 16.9069 0
    endloop
  endfacet
  facet normal 0 0 -1
    outer loop
      vertex -16.6285 -3.5345 0
      vertex 1.77698 16.9069 0
      vertex 5.25329 16.168 0
    endloop
  endfacet
  facet normal 0 0 -1
    outer loop
      vertex -16.6285 -3.5345 0
      vertex 5.25329 16.168 0
      vertex 8.5 14.7224 0
    endloop
  endfacet
  facet normal 0 0 -1
    outer loop
      vertex -16.6285 -3.5345 0
      vertex 8.5 14.7224 0
      vertex 11.3752 12.6335 0
    endloop
  endfacet
  facet normal 0 0 -1
    outer loop
      vertex -1.45388 3.83357 0
      vertex 11.3752 12.6335 0
      vertex 13.7533 9.99235 0
    endloop
  endfacet
  facet normal 0 0 -1
    outer loop
      vertex 2.32906 3.37423 0
      vertex 13.7533 9.99235 0
      vertex 15.5303 6.91452 0
    endloop
  endfacet
  facet normal 0 0 -1
    outer loop
      vertex 3.63037 1.90536 0
      vertex 15.5303 6.91452 0
      vertex 16.6285 3.5345 0
    endloop
  endfacet
  facet normal 0 0 -1
    outer loop
      vertex 4.1 0 0
      vertex 16.6285 3.5345 0
      vertex 17 0 0
    endloop
  endfacet
  facet normal 0 0 -1
    outer loop
      vertex 3.63037 -1.90536 0
      vertex 17 0 0
      vertex 16.6285 -3.5345 0
    endloop
  endfacet
  facet normal 0 0 -1
    outer loop
      vertex 0.4942 -4.07011 0
      vertex 16.6285 -3.5345 0
      vertex 15.5303 -6.91452 0
    endloop
  endfacet
  facet normal 0 0 -1
    outer loop
      vertex -16.6285 -3.5345 0
      vertex 15.5303 -6.91452 0
      vertex 13.7533 -9.99235 0
    endloop
  endfacet
  facet normal 0 0 -1
    outer loop
      vertex -16.6285 -3.5345 0
      vertex 13.7533 -9.99235 0
      vertex 11.3752 -12.6335 0
    endloop
  endfacet
  facet normal 0 0 -1
    outer loop
      vertex -16.6285 -3.5345 0
      vertex 11.3752 -12.6335 0
      vertex 8.5 -14.7224 0
    endloop
  endfacet
  facet normal 0 0 -1
    outer loop
      vertex -16.6285 -3.5345 0
      vertex 8.5 -14.7224 0
      vertex 5.25329 -16.168 0
    endloop
  endfacet
  facet normal 0 0 -1
    outer loop
      vertex -16.6285 -3.5345 0
      vertex 5.25329 -16.168 0
      vertex 1.77698 -16.9069 0
    endloop
  endfacet
  facet normal 0 0 -1
    outer loop
      vertex -16.6285 -3.5345 0
      vertex 1.77698 -16.9069 0
      vertex -1.77698 -16.9069 0
    endloop
  endfacet
  facet normal 0 0 -1
    outer loop
      vertex -16.6285 -3.5345 0
      vertex -1.77698 -16.9069 0
      vertex -5.25329 -16.168 0
    endloop
  endfacet
  facet normal 0 0 -1
    outer loop
      vertex -16.6285 -3.5345 0
      vertex -5.25329 -16.168 0
      vertex -8.5 -14.7224 0
    endloop
  endfacet
  facet normal 0 0 -1
    outer loop
      vertex -16.6285 -3.5345 0
      vertex -8.5 -14.7224 0
      vertex -11.3752 -12.6335 0
    endloop
  endfacet
  facet normal 0 0 -1
    outer loop
      vertex -16.6285 -3.5345 0
      vertex -11.3752 -12.6335 0
      vertex -13.7533 -9.99235 0
    endloop
  endfacet
  facet normal 0 0 -1
    outer loop
      vertex -16.6285 -3.5345 0
      vertex -13.7533 -9.99235 0
      vertex -15.5303 -6.91452 0
    endloop
  endfacet
  facet normal 0 0 -1
    outer loop
      vertex -1.45388 3.83357 0
      vertex 13.7533 9.99235 0
      vertex 0.4942 4.07011 0
    endloop
  endfacet
  facet normal 0 0 -1
    outer loop
      vertex -3.06889 -2.7188 0
      vertex -16.6285 -3.5345 0
      vertex -3.98086 -0.981194 0
    endloop
  endfacet
  facet normal 0 0 -1
    outer loop
      vertex 3.63037 -1.90536 0
      vertex 16.6285 -3.5345 0
      vertex 2.32906 -3.37423 0
    endloop
  endfacet
  facet normal 0 0 -1
    outer loop
      vertex -1.45388 -3.83357 0
      vertex -16.6285 -3.5345 0
      vertex -3.06889 -2.7188 0
    endloop
  endfacet
  facet normal 0 0 -1
    outer loop
      vertex 2.32906 -3.37423 0
      vertex 16.6285 -3.5345 0
      vertex 0.4942 -4.07011 0
    endloop
  endfacet
  facet normal 0 0 -1
    outer loop
      vertex -16.6285 -3.5345 0
      vertex -1.45388 -3.83357 0
      vertex 15.5303 -6.91452 0
    endloop
  endfacet
  facet normal 0 0 -1
    outer loop
      vertex -1.45388 -3.83357 0
      vertex 0.4942 -4.07011 0
      vertex 15.5303 -6.91452 0
    endloop
  endfacet
  facet normal 0 0 -1
    outer loop
      vertex 4.1 0 0
      vertex 17 0 0
      vertex 3.63037 -1.90536 0
    endloop
  endfacet
  facet normal 0 0 -1
    outer loop
      vertex 3.63037 1.90536 0
      vertex 16.6285 3.5345 0
      vertex 4.1 0 0
    endloop
  endfacet
  facet normal 0 0 -1
    outer loop
      vertex 0.4942 4.07011 0
      vertex 13.7533 9.99235 0
      vertex 2.32906 3.37423 0
    endloop
  endfacet
  facet normal 0 0 -1
    outer loop
      vertex -3.98086 -0.981194 0
      vertex -16.6285 -3.5345 0
      vertex -3.98086 0.981194 0
    endloop
  endfacet
  facet normal 0 0 -1
    outer loop
      vertex -16.6285 -3.5345 0
      vertex 11.3752 12.6335 0
      vertex -1.45388 3.83357 0
    endloop
  endfacet
  facet normal 0 0 -1
    outer loop
      vertex -16.6285 -3.5345 0
      vertex -1.45388 3.83357 0
      vertex -3.06889 2.7188 0
    endloop
  endfacet
  facet normal 0 0 -1
    outer loop
      vertex 2.32906 3.37423 0
      vertex 15.5303 6.91452 0
      vertex 3.63037 1.90536 0
    endloop
  endfacet
  facet normal 0 0 -1
    outer loop
      vertex -3.98086 0.981194 0
      vertex -16.6285 -3.5345 0
      vertex -3.06889 2.7188 0
    endloop
  endfacet
  facet normal -0.994522 0.104529 0
    outer loop
      vertex -17 0 0
      vertex -17 0 2
      vertex -16.6285 3.5345 0
    endloop
  endfacet
  facet normal -0.994522 0.104529 0
    outer loop
      vertex -16.6285 3.5345 0
      vertex -17 0 2
      vertex -16.6285 3.5345 2
    endloop
  endfacet
  facet normal -0.994522 -0.104529 0
    outer loop
      vertex -17 0 0
      vertex -16.6285 -3.5345 0
      vertex -17 0 2
    endloop
  endfacet
  facet normal -0.994522 -0.104529 0
    outer loop
      vertex -17 0 2
      vertex -16.6285 -3.5345 0
      vertex -16.6285 -3.5345 2
    endloop
  endfacet
  facet normal -0.951057 -0.309017 0
    outer loop
      vertex -16.6285 -3.5345 0
      vertex -15.5303 -6.91452 0
      vertex -16.6285 -3.5345 2
    endloop
  endfacet
  facet normal -0.951057 -0.309017 0
    outer loop
      vertex -16.6285 -3.5345 2
      vertex -15.5303 -6.91452 0
      vertex -15.5303 -6.91452 2
    endloop
  endfacet
  facet normal -0.866025 -0.5 0
    outer loop
      vertex -15.5303 -6.91452 0
      vertex -13.7533 -9.99235 0
      vertex -15.5303 -6.91452 2
    endloop
  endfacet
  facet normal -0.866025 -0.5 0
    outer loop
      vertex -15.5303 -6.91452 2
      vertex -13.7533 -9.99235 0
      vertex -13.7533 -9.99235 2
    endloop
  endfacet
  facet normal -0.743145 -0.669131 0
    outer loop
      vertex -13.7533 -9.99235 0
      vertex -11.3752 -12.6335 0
      vertex -13.7533 -9.99235 2
    endloop
  endfacet
  facet normal -0.743145 -0.669131 0
    outer loop
      vertex -13.7533 -9.99235 2
      vertex -11.3752 -12.6335 0
      vertex -11.3752 -12.6335 2
    endloop
  endfacet
  facet normal -0.587785 -0.809017 0
    outer loop
      vertex -11.3752 -12.6335 2
      vertex -11.3752 -12.6335 0
      vertex -8.5 -14.7224 0
    endloop
  endfacet
  facet normal -0.587785 -0.809017 0
    outer loop
      vertex -8.5 -14.7224 2
      vertex -11.3752 -12.6335 2
      vertex -8.5 -14.7224 0
    endloop
  endfacet
  facet normal -0.406737 -0.913545 0
    outer loop
      vertex -8.5 -14.7224 2
      vertex -8.5 -14.7224 0
      vertex -5.25329 -16.168 0
    endloop
  endfacet
  facet normal -0.406737 -0.913545 0
    outer loop
      vertex -5.25329 -16.168 2
      vertex -8.5 -14.7224 2
      vertex -5.25329 -16.168 0
    endloop
  endfacet
  facet normal -0.207912 -0.978148 0
    outer loop
      vertex -5.25329 -16.168 2
      vertex -5.25329 -16.168 0
      vertex -1.77698 -16.9069 0
    endloop
  endfacet
  facet normal -0.207912 -0.978148 0
    outer loop
      vertex -1.77698 -16.9069 2
      vertex -5.25329 -16.168 2
      vertex -1.77698 -16.9069 0
    endloop
  endfacet
  facet normal 0 -1 0
    outer loop
      vertex -1.77698 -16.9069 2
      vertex -1.77698 -16.9069 0
      vertex 1.77698 -16.9069 0
    endloop
  endfacet
  facet normal 0 -1 0
    outer loop
      vertex 1.77698 -16.9069 2
      vertex -1.77698 -16.9069 2
      vertex 1.77698 -16.9069 0
    endloop
  endfacet
  facet normal 0.207912 -0.978148 0
    outer loop
      vertex 1.77698 -16.9069 2
      vertex 1.77698 -16.9069 0
      vertex 5.25329 -16.168 0
    endloop
  endfacet
  facet normal 0.207912 -0.978148 0
    outer loop
      vertex 5.25329 -16.168 2
      vertex 1.77698 -16.9069 2
      vertex 5.25329 -16.168 0
    endloop
  endfacet
  facet normal 0.406737 -0.913545 0
    outer loop
      vertex 5.25329 -16.168 2
      vertex 5.25329 -16.168 0
      vertex 8.5 -14.7224 0
    endloop
  endfacet
  facet normal 0.406737 -0.913545 0
    outer loop
      vertex 8.5 -14.7224 2
      vertex 5.25329 -16.168 2
      vertex 8.5 -14.7224 0
    endloop
  endfacet
  facet normal 0.587785 -0.809017 0
    outer loop
      vertex 8.5 -14.7224 2
      vertex 8.5 -14.7224 0
      vertex 11.3752 -12.6335 0
    endloop
  endfacet
  facet normal 0.587785 -0.809017 0
    outer loop
      vertex 11.3752 -12.6335 2
      vertex 8.5 -14.7224 2
      vertex 11.3752 -12.6335 0
    endloop
  endfacet
  facet normal 0.743145 -0.669131 0
    outer loop
      vertex 11.3752 -12.6335 2
      vertex 11.3752 -12.6335 0
      vertex 13.7533 -9.99235 0
    endloop
  endfacet
  facet normal 0.743145 -0.669131 0
    outer loop
      vertex 13.7533 -9.99235 2
      vertex 11.3752 -12.6335 2
      vertex 13.7533 -9.99235 0
    endloop
  endfacet
  facet normal 0.866025 -0.5 0
    outer loop
      vertex 13.7533 -9.99235 2
      vertex 13.7533 -9.99235 0
      vertex 15.5303 -6.91452 0
    endloop
  endfacet
  facet normal 0.866025 -0.5 0
    outer loop
      vertex 15.5303 -6.91452 2
      vertex 13.7533 -9.99235 2
      vertex 15.5303 -6.91452 0
    endloop
  endfacet
  facet normal 0.951057 -0.309017 0
    outer loop
      vertex 15.5303 -6.91452 2
      vertex 15.5303 -6.91452 0
      vertex 16.6285 -3.5345 0
    endloop
  endfacet
  facet normal 0.951057 -0.309017 0
    outer loop
      vertex 16.6285 -3.5345 2
      vertex 15.5303 -6.91452 2
      vertex 16.6285 -3.5345 0
    endloop
  endfacet
  facet normal 0.994522 -0.104529 0
    outer loop
      vertex 16.6285 -3.5345 2
      vertex 16.6285 -3.5345 0
      vertex 17 0 0
    endloop
  endfacet
  facet normal 0.994522 -0.104529 0
    outer loop
      vertex 17 0 2
      vertex 16.6285 -3.5345 2
      vertex 17 0 0
    endloop
  endfacet
  facet normal 0.994522 0.104529 0
    outer loop
      vertex 17 0 0
      vertex 16.6285 3.5345 0
      vertex 16.6285 3.5345 2
    endloop
  endfacet
  facet normal 0.994522 0.104529 0
    outer loop
      vertex 17 0 2
      vertex 17 0 0
      vertex 16.6285 3.5345 2
    endloop
  endfacet
  facet normal 0.951057 0.309017 0
    outer loop
      vertex 16.6285 3.5345 0
      vertex 15.5303 6.91452 0
      vertex 15.5303 6.91452 2
    endloop
  endfacet
  facet normal 0.951057 0.309017 0
    outer loop
      vertex 16.6285 3.5345 2
      vertex 16.6285 3.5345 0
      vertex 15.5303 6.91452 2
    endloop
  endfacet
  facet normal 0.866025 0.5 0
    outer loop
      vertex 15.5303 6.91452 0
      vertex 13.7533 9.99235 0
      vertex 13.7533 9.99235 2
    endloop
  endfacet
  facet normal 0.866025 0.5 0
    outer loop
      vertex 15.5303 6.91452 2
      vertex 15.5303 6.91452 0
      vertex 13.7533 9.99235 2
    endloop
  endfacet
  facet normal 0.743145 0.669131 0
    outer loop
      vertex 13.7533 9.99235 0
      vertex 11.3752 12.6335 0
      vertex 11.3752 12.6335 2
    endloop
  endfacet
  facet normal 0.743145 0.669131 0
    outer loop
      vertex 13.7533 9.99235 2
      vertex 13.7533 9.99235 0
      vertex 11.3752 12.6335 2
    endloop
  endfacet
  facet normal 0.587785 0.809017 0
    outer loop
      vertex 8.5 14.7224 0
      vertex 8.5 14.7224 2
      vertex 11.3752 12.6335 0
    endloop
  endfacet
  facet normal 0.587785 0.809017 0
    outer loop
      vertex 11.3752 12.6335 0
      vertex 8.5 14.7224 2
      vertex 11.3752 12.6335 2
    endloop
  endfacet
  facet normal 0.406737 0.913545 0
    outer loop
      vertex 5.25329 16.168 0
      vertex 5.25329 16.168 2
      vertex 8.5 14.7224 0
    endloop
  endfacet
  facet normal 0.406737 0.913545 0
    outer loop
      vertex 8.5 14.7224 0
      vertex 5.25329 16.168 2
      vertex 8.5 14.7224 2
    endloop
  endfacet
  facet normal 0.207912 0.978148 0
    outer loop
      vertex 1.77698 16.9069 0
      vertex 1.77698 16.9069 2
      vertex 5.25329 16.168 0
    endloop
  endfacet
  facet normal 0.207912 0.978148 0
    outer loop
      vertex 5.25329 16.168 0
      vertex 1.77698 16.9069 2
      vertex 5.25329 16.168 2
    endloop
  endfacet
  facet normal 0 1 0
    outer loop
      vertex -1.77698 16.9069 0
      vertex -1.77698 16.9069 2
      vertex 1.77698 16.9069 0
    endloop
  endfacet
  facet normal 0 1 0
    outer loop
      vertex 1.77698 16.9069 0
      vertex -1.77698 16.9069 2
      vertex 1.77698 16.9069 2
    endloop
  endfacet
  facet normal -0.207912 0.978148 0
    outer loop
      vertex -5.25329 16.168 0
      vertex -5.25329 16.168 2
      vertex -1.77698 16.9069 0
    endloop
  endfacet
  facet normal -0.207912 0.978148 0
    outer loop
      vertex -1.77698 16.9069 0
      vertex -5.25329 16.168 2
      vertex -1.77698 16.9069 2
    endloop
  endfacet
  facet normal -0.406737 0.913545 0
    outer loop
      vertex -8.5 14.7224 0
      vertex -8.5 14.7224 2
      vertex -5.25329 16.168 0
    endloop
  endfacet
  facet normal -0.406737 0.913545 0
    outer loop
      vertex -5.25329 16.168 0
      vertex -8.5 14.7224 2
      vertex -5.25329 16.168 2
    endloop
  endfacet
  facet normal -0.587785 0.809017 0
    outer loop
      vertex -11.3752 12.6335 0
      vertex -11.3752 12.6335 2
      vertex -8.5 14.7224 0
    endloop
  endfacet
  facet normal -0.587785 0.809017 0
    outer loop
      vertex -8.5 14.7224 0
      vertex -11.3752 12.6335 2
      vertex -8.5 14.7224 2
    endloop
  endfacet
  facet normal -0.743145 0.669131 0
    outer loop
      vertex -13.7533 9.99235 0
      vertex -13.7533 9.99235 2
      vertex -11.3752 12.6335 0
    endloop
  endfacet
  facet normal -0.743145 0.669131 0
    outer loop
      vertex -11.3752 12.6335 0
      vertex -13.7533 9.99235 2
      vertex -11.3752 12.6335 2
    endloop
  endfacet
  facet normal -0.866025 0.5 0
    outer loop
      vertex -15.5303 6.91452 0
      vertex -15.5303 6.91452 2
      vertex -13.7533 9.99235 0
    endloop
  endfacet
  facet normal -0.866025 0.5 0
    outer loop
      vertex -13.7533 9.99235 0
      vertex -15.5303 6.91452 2
      vertex -13.7533 9.99235 2
    endloop
  endfacet
  facet normal -0.951057 0.309017 0
    outer loop
      vertex -16.6285 3.5345 0
      vertex -16.6285 3.5345 2
      vertex -15.5303 6.91452 0
    endloop
  endfacet
  facet normal -0.951057 0.309017 0
    outer loop
      vertex -15.5303 6.91452 0
      vertex -16.6285 3.5345 2
      vertex -15.5303 6.91452 2
    endloop
  endfacet
  facet normal 1 0 0
    outer loop
      vertex -3.98086 0.981194 0
      vertex -3.98086 0.981194 2.5
      vertex -3.98086 -0.981194 2.5
    endloop
  endfacet
  facet normal 1 0 0
    outer loop
      vertex -3.98086 -0.981194 0
      vertex -3.98086 0.981194 0
      vertex -3.98086 -0.981194 2.5
    endloop
  endfacet
  facet normal 0.885456 -0.464723 0
    outer loop
      vertex -3.06889 2.7188 0
      vertex -3.06889 2.7188 2.5
      vertex -3.98086 0.981194 2.5
    endloop
  endfacet
  facet normal 0.885456 -0.464723 0
    outer loop
      vertex -3.98086 0.981194 0
      vertex -3.06889 2.7188 0
      vertex -3.98086 0.981194 2.5
    endloop
  endfacet
  facet normal 0.568065 -0.822984 0
    outer loop
      vertex -1.45388 3.83357 0
      vertex -1.45388 3.83357 2.5
      vertex -3.06889 2.7188 2.5
    endloop
  endfacet
  facet normal 0.568065 -0.822984 0
    outer loop
      vertex -3.06889 2.7188 0
      vertex -1.45388 3.83357 0
      vertex -3.06889 2.7188 2.5
    endloop
  endfacet
  facet normal 0.120536 -0.992709 0
    outer loop
      vertex 0.4942 4.07011 0
      vertex 0.4942 4.07011 2.5
      vertex -1.45388 3.83357 2.5
    endloop
  endfacet
  facet normal 0.120536 -0.992709 0
    outer loop
      vertex -1.45388 3.83357 0
      vertex 0.4942 4.07011 0
      vertex -1.45388 3.83357 2.5
    endloop
  endfacet
  facet normal -0.354605 -0.935016 0
    outer loop
      vertex 2.32906 3.37423 0
      vertex 2.32906 3.37423 2.5
      vertex 0.4942 4.07011 2.5
    endloop
  endfacet
  facet normal -0.354605 -0.935016 0
    outer loop
      vertex 0.4942 4.07011 0
      vertex 2.32906 3.37423 0
      vertex 0.4942 4.07011 2.5
    endloop
  endfacet
  facet normal -0.748511 -0.663123 0
    outer loop
      vertex 3.63037 1.90536 2.5
      vertex 2.32906 3.37423 2.5
      vertex 3.63037 1.90536 0
    endloop
  endfacet
  facet normal -0.748511 -0.663123 0
    outer loop
      vertex 3.63037 1.90536 0
      vertex 2.32906 3.37423 2.5
      vertex 2.32906 3.37423 0
    endloop
  endfacet
  facet normal -0.970942 -0.239316 0
    outer loop
      vertex 4.1 0 2.5
      vertex 3.63037 1.90536 2.5
      vertex 4.1 0 0
    endloop
  endfacet
  facet normal -0.970942 -0.239316 0
    outer loop
      vertex 4.1 0 0
      vertex 3.63037 1.90536 2.5
      vertex 3.63037 1.90536 0
    endloop
  endfacet
  facet normal -0.970942 0.239316 0
    outer loop
      vertex 4.1 0 2.5
      vertex 4.1 0 0
      vertex 3.63037 -1.90536 2.5
    endloop
  endfacet
  facet normal -0.970942 0.239316 0
    outer loop
      vertex 3.63037 -1.90536 2.5
      vertex 4.1 0 0
      vertex 3.63037 -1.90536 0
    endloop
  endfacet
  facet normal -0.748511 0.663123 0
    outer loop
      vertex 3.63037 -1.90536 2.5
      vertex 3.63037 -1.90536 0
      vertex 2.32906 -3.37423 2.5
    endloop
  endfacet
  facet normal -0.748511 0.663123 0
    outer loop
      vertex 2.32906 -3.37423 2.5
      vertex 3.63037 -1.90536 0
      vertex 2.32906 -3.37423 0
    endloop
  endfacet
  facet normal -0.354605 0.935016 0
    outer loop
      vertex 2.32906 -3.37423 2.5
      vertex 2.32906 -3.37423 0
      vertex 0.4942 -4.07011 2.5
    endloop
  endfacet
  facet normal -0.354605 0.935016 0
    outer loop
      vertex 0.4942 -4.07011 2.5
      vertex 2.32906 -3.37423 0
      vertex 0.4942 -4.07011 0
    endloop
  endfacet
  facet normal 0.120536 0.992709 0
    outer loop
      vertex 0.4942 -4.07011 2.5
      vertex 0.4942 -4.07011 0
      vertex -1.45388 -3.83357 2.5
    endloop
  endfacet
  facet normal 0.120536 0.992709 0
    outer loop
      vertex -1.45388 -3.83357 2.5
      vertex 0.4942 -4.07011 0
      vertex -1.45388 -3.83357 0
    endloop
  endfacet
  facet normal 0.568065 0.822984 0
    outer loop
      vertex -1.45388 -3.83357 2.5
      vertex -1.45388 -3.83357 0
      vertex -3.06889 -2.7188 2.5
    endloop
  endfacet
  facet normal 0.568065 0.822984 0
    outer loop
      vertex -3.06889 -2.7188 2.5
      vertex -1.45388 -3.83357 0
      vertex -3.06889 -2.7188 0
    endloop
  endfacet
  facet normal 0.885456 0.464723 0
    outer loop
      vertex -3.98086 -0.981194 2.5
      vertex -3.06889 -2.7188 2.5
      vertex -3.06889 -2.7188 0
    endloop
  endfacet
  facet normal 0.885456 0.464723 0
    outer loop
      vertex -3.98086 -0.981194 0
      vertex -3.98086 -0.981194 2.5
      vertex -3.06889 -2.7188 0
    endloop
  endfacet
  facet normal 0 0 1
    outer loop
      vertex -16.6285 3.5345 2
      vertex -17 0 2
      vertex -16.6285 -3.5345 2
    endloop
  endfacet
  facet normal 0 0 1
    outer loop
      vertex -13.7533 -9.99235 2
      vertex -16.6285 3.5345 2
      vertex -15.5303 -6.91452 2
    endloop
  endfacet
  facet normal 0 0 1
    outer loop
      vertex -15.5303 -6.91452 2
      vertex -16.6285 3.5345 2
      vertex -16.6285 -3.5345 2
    endloop
  endfacet
  facet normal 0 0 1
    outer loop
      vertex -11.3752 -12.6335 2
      vertex -16.6285 3.5345 2
      vertex -13.7533 -9.99235 2
    endloop
  endfacet
  facet normal 0 0 1
    outer loop
      vertex -8.5 -14.7224 2
      vertex -16.6285 3.5345 2
      vertex -11.3752 -12.6335 2
    endloop
  endfacet
  facet normal 0 0 1
    outer loop
      vertex -5.25329 -16.168 2
      vertex -16.6285 3.5345 2
      vertex -8.5 -14.7224 2
    endloop
  endfacet
  facet normal 0 0 1
    outer loop
      vertex -1.77698 -16.9069 2
      vertex -16.6285 3.5345 2
      vertex -5.25329 -16.168 2
    endloop
  endfacet
  facet normal 0 0 1
    outer loop
      vertex 1.77698 -16.9069 2
      vertex -16.6285 3.5345 2
      vertex -1.77698 -16.9069 2
    endloop
  endfacet
  facet normal 0 0 1
    outer loop
      vertex 5.25329 -16.168 2
      vertex -16.6285 3.5345 2
      vertex 1.77698 -16.9069 2
    endloop
  endfacet
  facet normal 0 0 1
    outer loop
      vertex 8.5 -14.7224 2
      vertex -16.6285 3.5345 2
      vertex 5.25329 -16.168 2
    endloop
  endfacet
  facet normal 0 0 1
    outer loop
      vertex 11.3752 -12.6335 2
      vertex -16.6285 3.5345 2
      vertex 8.5 -14.7224 2
    endloop
  endfacet
  facet normal 0 0 1
    outer loop
      vertex -1.91342 -4.6194 2
      vertex -16.6285 3.5345 2
      vertex 11.3752 -12.6335 2
    endloop
  endfacet
  facet normal 0 0 1
    outer loop
      vertex -4.6194 1.91342 2
      vertex -3.53553 3.53553 2
      vertex -16.6285 3.5345 2
    endloop
  endfacet
  facet normal 0 0 1
    outer loop
      vertex 4.6194 -1.91342 2
      vertex 3.53553 -3.53553 2
      vertex 15.5303 -6.91452 2
    endloop
  endfacet
  facet normal 0 0 1
    outer loop
      vertex 5 0 2
      vertex 4.6194 -1.91342 2
      vertex 16.6285 -3.5345 2
    endloop
  endfacet
  facet normal 0 0 1
    outer loop
      vertex 13.7533 9.99235 2
      vertex -16.6285 3.5345 2
      vertex 15.5303 6.91452 2
    endloop
  endfacet
  facet normal 0 0 1
    outer loop
      vertex 11.3752 12.6335 2
      vertex -16.6285 3.5345 2
      vertex 13.7533 9.99235 2
    endloop
  endfacet
  facet normal 0 0 1
    outer loop
      vertex 8.5 14.7224 2
      vertex -16.6285 3.5345 2
      vertex 11.3752 12.6335 2
    endloop
  endfacet
  facet normal 0 0 1
    outer loop
      vertex 5.25329 16.168 2
      vertex -16.6285 3.5345 2
      vertex 8.5 14.7224 2
    endloop
  endfacet
  facet normal 0 0 1
    outer loop
      vertex 1.77698 16.9069 2
      vertex -16.6285 3.5345 2
      vertex 5.25329 16.168 2
    endloop
  endfacet
  facet normal 0 0 1
    outer loop
      vertex -1.77698 16.9069 2
      vertex -16.6285 3.5345 2
      vertex 1.77698 16.9069 2
    endloop
  endfacet
  facet normal 0 0 1
    outer loop
      vertex -5.25329 16.168 2
      vertex -16.6285 3.5345 2
      vertex -1.77698 16.9069 2
    endloop
  endfacet
  facet normal 0 0 1
    outer loop
      vertex -8.5 14.7224 2
      vertex -16.6285 3.5345 2
      vertex -5.25329 16.168 2
    endloop
  endfacet
  facet normal 0 0 1
    outer loop
      vertex -11.3752 12.6335 2
      vertex -16.6285 3.5345 2
      vertex -8.5 14.7224 2
    endloop
  endfacet
  facet normal 0 0 1
    outer loop
      vertex -13.7533 9.99235 2
      vertex -16.6285 3.5345 2
      vertex -11.3752 12.6335 2
    endloop
  endfacet
  facet normal 0 0 1
    outer loop
      vertex -15.5303 6.91452 2
      vertex -16.6285 3.5345 2
      vertex -13.7533 9.99235 2
    endloop
  endfacet
  facet normal 0 0 1
    outer loop
      vertex 1.91342 -4.6194 2
      vertex 0 -5 2
      vertex 13.7533 -9.99235 2
    endloop
  endfacet
  facet normal 0 0 1
    outer loop
      vertex 4.6194 1.91342 2
      vertex 5 0 2
      vertex 17 0 2
    endloop
  endfacet
  facet normal 0 0 1
    outer loop
      vertex -1.91342 4.6194 2
      vertex -16.6285 3.5345 2
      vertex -3.53553 3.53553 2
    endloop
  endfacet
  facet normal 0 0 1
    outer loop
      vertex 0 5 2
      vertex -16.6285 3.5345 2
      vertex -1.91342 4.6194 2
    endloop
  endfacet
  facet normal 0 0 1
    outer loop
      vertex 1.91342 4.6194 2
      vertex 3.53553 3.53553 2
      vertex 15.5303 6.91452 2
    endloop
  endfacet
  facet normal 0 0 1
    outer loop
      vertex 15.5303 6.91452 2
      vertex -16.6285 3.5345 2
      vertex 0 5 2
    endloop
  endfacet
  facet normal 0 0 1
    outer loop
      vertex 3.53553 3.53553 2
      vertex 4.6194 1.91342 2
      vertex 16.6285 3.5345 2
    endloop
  endfacet
  facet normal 0 0 1
    outer loop
      vertex 15.5303 6.91452 2
      vertex 3.53553 3.53553 2
      vertex 16.6285 3.5345 2
    endloop
  endfacet
  facet normal 0 0 1
    outer loop
      vertex 16.6285 3.5345 2
      vertex 4.6194 1.91342 2
      vertex 17 0 2
    endloop
  endfacet
  facet normal 0 0 1
    outer loop
      vertex 0 5 2
      vertex 1.91342 4.6194 2
      vertex 15.5303 6.91452 2
    endloop
  endfacet
  facet normal 0 0 1
    outer loop
      vertex 17 0 2
      vertex 5 0 2
      vertex 16.6285 -3.5345 2
    endloop
  endfacet
  facet normal 0 0 1
    outer loop
      vertex 16.6285 -3.5345 2
      vertex 4.6194 -1.91342 2
      vertex 15.5303 -6.91452 2
    endloop
  endfacet
  facet normal 0 0 1
    outer loop
      vertex 15.5303 -6.91452 2
      vertex 3.53553 -3.53553 2
      vertex 13.7533 -9.99235 2
    endloop
  endfacet
  facet normal 0 0 1
    outer loop
      vertex -5 0 2
      vertex -4.6194 1.91342 2
      vertex -16.6285 3.5345 2
    endloop
  endfacet
  facet normal 0 0 1
    outer loop
      vertex 3.53553 -3.53553 2
      vertex 1.91342 -4.6194 2
      vertex 13.7533 -9.99235 2
    endloop
  endfacet
  facet normal 0 0 1
    outer loop
      vertex 13.7533 -9.99235 2
      vertex 0 -5 2
      vertex 11.3752 -12.6335 2
    endloop
  endfacet
  facet normal 0 0 1
    outer loop
      vertex -3.53553 -3.53553 2
      vertex -16.6285 3.5345 2
      vertex -1.91342 -4.6194 2
    endloop
  endfacet
  facet normal 0 0 1
    outer loop
      vertex -4.6194 -1.91342 2
      vertex -16.6285 3.5345 2
      vertex -3.53553 -3.53553 2
    endloop
  endfacet
  facet normal 0 0 1
    outer loop
      vertex 0 -5 2
      vertex -1.91342 -4.6194 2
      vertex 11.3752 -12.6335 2
    endloop
  endfacet
  facet normal 0 0 1
    outer loop
      vertex -4.6194 -1.91342 2
      vertex -5 0 2
      vertex -16.6285 3.5345 2
    endloop
  endfacet
  facet normal 0 0 1
    outer loop
      vertex -4.6194 1.91342 2.5
      vertex -5 0 2.5
      vertex -4.6194 -1.91342 2.5
    endloop
  endfacet
  facet normal 0 0 1
    outer loop
      vertex -3.98086 -0.981194 2.5
      vertex -4.6194 1.91342 2.5
      vertex -3.53553 -3.53553 2.5
    endloop
  endfacet
  facet normal 0 0 1
    outer loop
      vertex -3.53553 -3.53553 2.5
      vertex -4.6194 1.91342 2.5
      vertex -4.6194 -1.91342 2.5
    endloop
  endfacet
  facet normal 0 0 1
    outer loop
      vertex 2.32906 3.37423 2.5
      vertex 4.6194 1.91342 2.5
      vertex 3.53553 3.53553 2.5
    endloop
  endfacet
  facet normal 0 0 1
    outer loop
      vertex 0.4942 4.07011 2.5
      vertex 2.32906 3.37423 2.5
      vertex 1.91342 4.6194 2.5
    endloop
  endfacet
  facet normal 0 0 1
    outer loop
      vertex -1.45388 3.83357 2.5
      vertex 0.4942 4.07011 2.5
      vertex 1.91342 4.6194 2.5
    endloop
  endfacet
  facet normal 0 0 1
    outer loop
      vertex -1.91342 4.6194 2.5
      vertex -4.6194 1.91342 2.5
      vertex 0 5 2.5
    endloop
  endfacet
  facet normal 0 0 1
    outer loop
      vertex -3.53553 3.53553 2.5
      vertex -4.6194 1.91342 2.5
      vertex -1.91342 4.6194 2.5
    endloop
  endfacet
  facet normal 0 0 1
    outer loop
      vertex -3.06889 -2.7188 2.5
      vertex -3.98086 -0.981194 2.5
      vertex -3.53553 -3.53553 2.5
    endloop
  endfacet
  facet normal 0 0 1
    outer loop
      vertex 3.63037 1.90536 2.5
      vertex 4.1 0 2.5
      vertex 5 0 2.5
    endloop
  endfacet
  facet normal 0 0 1
    outer loop
      vertex 2.32906 3.37423 2.5
      vertex 3.63037 1.90536 2.5
      vertex 4.6194 1.91342 2.5
    endloop
  endfacet
  facet normal 0 0 1
    outer loop
      vertex 0 5 2.5
      vertex -4.6194 1.91342 2.5
      vertex -3.06889 2.7188 2.5
    endloop
  endfacet
  facet normal 0 0 1
    outer loop
      vertex 0 5 2.5
      vertex -1.45388 3.83357 2.5
      vertex 1.91342 4.6194 2.5
    endloop
  endfacet
  facet normal 0 0 1
    outer loop
      vertex 0 5 2.5
      vertex -3.06889 2.7188 2.5
      vertex -1.45388 3.83357 2.5
    endloop
  endfacet
  facet normal 0 0 1
    outer loop
      vertex 1.91342 4.6194 2.5
      vertex 2.32906 3.37423 2.5
      vertex 3.53553 3.53553 2.5
    endloop
  endfacet
  facet normal 0 0 1
    outer loop
      vertex 2.32906 -3.37423 2.5
      vertex 0.4942 -4.07011 2.5
      vertex 1.91342 -4.6194 2.5
    endloop
  endfacet
  facet normal 0 0 1
    outer loop
      vertex 4.6194 1.91342 2.5
      vertex 3.63037 1.90536 2.5
      vertex 5 0 2.5
    endloop
  endfacet
  facet normal 0 0 1
    outer loop
      vertex 5 0 2.5
      vertex 4.1 0 2.5
      vertex 4.6194 -1.91342 2.5
    endloop
  endfacet
  facet normal 0 0 1
    outer loop
      vertex 4.6194 -1.91342 2.5
      vertex 3.63037 -1.90536 2.5
      vertex 3.53553 -3.53553 2.5
    endloop
  endfacet
  facet normal 0 0 1
    outer loop
      vertex 3.53553 -3.53553 2.5
      vertex 2.32906 -3.37423 2.5
      vertex 1.91342 -4.6194 2.5
    endloop
  endfacet
  facet normal 0 0 1
    outer loop
      vertex 1.91342 -4.6194 2.5
      vertex 0.4942 -4.07011 2.5
      vertex 0 -5 2.5
    endloop
  endfacet
  facet normal 0 0 1
    outer loop
      vertex 0 -5 2.5
      vertex -1.45388 -3.83357 2.5
      vertex -1.91342 -4.6194 2.5
    endloop
  endfacet
  facet normal 0 0 1
    outer loop
      vertex -1.91342 -4.6194 2.5
      vertex -3.06889 -2.7188 2.5
      vertex -3.53553 -3.53553 2.5
    endloop
  endfacet
  facet normal 0 0 1
    outer loop
      vertex -3.98086 -0.981194 2.5
      vertex -3.98086 0.981194 2.5
      vertex -4.6194 1.91342 2.5
    endloop
  endfacet
  facet normal 0 0 1
    outer loop
      vertex 4.1 0 2.5
      vertex 3.63037 -1.90536 2.5
      vertex 4.6194 -1.91342 2.5
    endloop
  endfacet
  facet normal 0 0 1
    outer loop
      vertex 3.63037 -1.90536 2.5
      vertex 2.32906 -3.37423 2.5
      vertex 3.53553 -3.53553 2.5
    endloop
  endfacet
  facet normal 0 0 1
    outer loop
      vertex -1.45388 -3.83357 2.5
      vertex -3.06889 -2.7188 2.5
      vertex -1.91342 -4.6194 2.5
    endloop
  endfacet
  facet normal 0 0 1
    outer loop
      vertex 0.4942 -4.07011 2.5
      vertex -1.45388 -3.83357 2.5
      vertex 0 -5 2.5
    endloop
  endfacet
  facet normal 0 0 1
    outer loop
      vertex -3.98086 0.981194 2.5
      vertex -3.06889 2.7188 2.5
      vertex -4.6194 1.91342 2.5
    endloop
  endfacet
  facet normal -0.980785 -0.19509 0
    outer loop
      vertex -5 0 2
      vertex -4.6194 -1.91342 2
      vertex -5 0 2.5
    endloop
  endfacet
  facet normal -0.980785 -0.19509 0
    outer loop
      vertex -5 0 2.5
      vertex -4.6194 -1.91342 2
      vertex -4.6194 -1.91342 2.5
    endloop
  endfacet
  facet normal -0.83147 -0.55557 0
    outer loop
      vertex -4.6194 -1.91342 2
      vertex -3.53553 -3.53553 2
      vertex -4.6194 -1.91342 2.5
    endloop
  endfacet
  facet normal -0.83147 -0.55557 0
    outer loop
      vertex -4.6194 -1.91342 2.5
      vertex -3.53553 -3.53553 2
      vertex -3.53553 -3.53553 2.5
    endloop
  endfacet
  facet normal -0.55557 -0.83147 0
    outer loop
      vertex -3.53553 -3.53553 2.5
      vertex -3.53553 -3.53553 2
      vertex -1.91342 -4.6194 2
    endloop
  endfacet
  facet normal -0.55557 -0.83147 0
    outer loop
      vertex -1.91342 -4.6194 2.5
      vertex -3.53553 -3.53553 2.5
      vertex -1.91342 -4.6194 2
    endloop
  endfacet
  facet normal -0.19509 -0.980785 0
    outer loop
      vertex -1.91342 -4.6194 2.5
      vertex -1.91342 -4.6194 2
      vertex 0 -5 2
    endloop
  endfacet
  facet normal -0.19509 -0.980785 0
    outer loop
      vertex 0 -5 2.5
      vertex -1.91342 -4.6194 2.5
      vertex 0 -5 2
    endloop
  endfacet
  facet normal 0.19509 -0.980785 0
    outer loop
      vertex 0 -5 2.5
      vertex 0 -5 2
      vertex 1.91342 -4.6194 2
    endloop
  endfacet
  facet normal 0.19509 -0.980785 0
    outer loop
      vertex 1.91342 -4.6194 2.5
      vertex 0 -5 2.5
      vertex 1.91342 -4.6194 2
    endloop
  endfacet
  facet normal 0.55557 -0.83147 0
    outer loop
      vertex 1.91342 -4.6194 2.5
      vertex 1.91342 -4.6194 2
      vertex 3.53553 -3.53553 2
    endloop
  endfacet
  facet normal 0.55557 -0.83147 0
    outer loop
      vertex 3.53553 -3.53553 2.5
      vertex 1.91342 -4.6194 2.5
      vertex 3.53553 -3.53553 2
    endloop
  endfacet
  facet normal 0.83147 -0.55557 0
    outer loop
      vertex 3.53553 -3.53553 2.5
      vertex 3.53553 -3.53553 2
      vertex 4.6194 -1.91342 2
    endloop
  endfacet
  facet normal 0.83147 -0.55557 0
    outer loop
      vertex 4.6194 -1.91342 2.5
      vertex 3.53553 -3.53553 2.5
      vertex 4.6194 -1.91342 2
    endloop
  endfacet
  facet normal 0.980785 -0.19509 0
    outer loop
      vertex 4.6194 -1.91342 2.5
      vertex 4.6194 -1.91342 2
      vertex 5 0 2
    endloop
  endfacet
  facet normal 0.980785 -0.19509 0
    outer loop
      vertex 5 0 2.5
      vertex 4.6194 -1.91342 2.5
      vertex 5 0 2
    endloop
  endfacet
  facet normal 0.980785 0.19509 0
    outer loop
      vertex 5 0 2
      vertex 4.6194 1.91342 2
      vertex 4.6194 1.91342 2.5
    endloop
  endfacet
  facet normal 0.980785 0.19509 0
    outer loop
      vertex 5 0 2.5
      vertex 5 0 2
      vertex 4.6194 1.91342 2.5
    endloop
  endfacet
  facet normal 0.83147 0.55557 0
    outer loop
      vertex 4.6194 1.91342 2
      vertex 3.53553 3.53553 2
      vertex 3.53553 3.53553 2.5
    endloop
  endfacet
  facet normal 0.83147 0.55557 0
    outer loop
      vertex 4.6194 1.91342 2.5
      vertex 4.6194 1.91342 2
      vertex 3.53553 3.53553 2.5
    endloop
  endfacet
  facet normal 0.55557 0.83147 0
    outer loop
      vertex 1.91342 4.6194 2
      vertex 1.91342 4.6194 2.5
      vertex 3.53553 3.53553 2
    endloop
  endfacet
  facet normal 0.55557 0.83147 0
    outer loop
      vertex 3.53553 3.53553 2
      vertex 1.91342 4.6194 2.5
      vertex 3.53553 3.53553 2.5
    endloop
  endfacet
  facet normal 0.19509 0.980785 0
    outer loop
      vertex 0 5 2
      vertex 0 5 2.5
      vertex 1.91342 4.6194 2
    endloop
  endfacet
  facet normal 0.19509 0.980785 0
    outer loop
      vertex 1.91342 4.6194 2
      vertex 0 5 2.5
      vertex 1.91342 4.6194 2.5
    endloop
  endfacet
  facet normal -0.19509 0.980785 0
    outer loop
      vertex -1.91342 4.6194 2
      vertex -1.91342 4.6194 2.5
      vertex 0 5 2
    endloop
  endfacet
  facet normal -0.19509 0.980785 0
    outer loop
      vertex 0 5 2
      vertex -1.91342 4.6194 2.5
      vertex 0 5 2.5
    endloop
  endfacet
  facet normal -0.55557 0.83147 0
    outer loop
      vertex -3.53553 3.53553 2
      vertex -3.53553 3.53553 2.5
      vertex -1.91342 4.6194 2
    endloop
  endfacet
  facet normal -0.55557 0.83147 0
    outer loop
      vertex -1.91342 4.6194 2
      vertex -3.53553 3.53553 2.5
      vertex -1.91342 4.6194 2.5
    endloop
  endfacet
  facet normal -0.83147 0.55557 0
    outer loop
      vertex -4.6194 1.91342 2
      vertex -4.6194 1.91342 2.5
      vertex -3.53553 3.53553 2
    endloop
  endfacet
  facet normal -0.83147 0.55557 0
    outer loop
      vertex -3.53553 3.53553 2
      vertex -4.6194 1.91342 2.5
      vertex -3.53553 3.53553 2.5
    endloop
  endfacet
  facet normal -0.980785 0.19509 0
    outer loop
      vertex -5 0 2
      vertex -5 0 2.5
      vertex -4.6194 1.91342 2
    endloop
  endfacet
  facet normal -0.980785 0.19509 0
    outer loop
      vertex -4.6194 1.91342 2
      vertex -5 0 2.5
      vertex -4.6194 1.91342 2.5
    endloop
  endfacet
endsolid OpenSCAD_Model
